<svg width="53" height="51" viewBox="0 0 53 51" fill="none" xmlns="http://www.w3.org/2000/svg">
<g id="Frame" clip-path="url(#clip0_9_17)">
<g id="Layer 28">
<path id="Vector" d="M40.1954 8.63961C41.4805 8.63155 42.7425 8.98284 43.8397 9.65409C44.9369 10.3253 45.8259 11.29 46.407 12.4398C46.9881 13.5896 47.2383 14.879 47.1295 16.1635C47.0207 17.448 46.5572 18.6766 45.791 19.7116C45.0249 20.7466 43.9863 21.5469 42.792 22.0229C41.5976 22.4988 40.2946 22.6315 39.0292 22.4061C37.7639 22.1807 36.5862 21.606 35.6282 20.7466C34.6703 19.8872 33.9701 18.7771 33.6061 17.5408C33.1613 17.9992 32.6765 18.4169 32.1577 18.789C32.7432 20.2554 33.7158 21.5342 34.9712 22.488C36.2265 23.4419 37.7171 24.0347 39.283 24.203C40.8489 24.3712 42.4309 24.1084 43.8592 23.4429C45.2875 22.7774 46.508 21.7342 47.3898 20.4254C48.2717 19.1166 48.7814 17.5916 48.8644 16.0141C48.9474 14.4367 48.6005 12.8663 47.8608 11.4717C47.1212 10.0771 46.0169 8.91087 44.6664 8.09827C43.3159 7.28567 41.7702 6.85738 40.1954 6.85938C38.8614 6.86937 37.5481 7.19169 36.3602 7.80065C36.4905 8.42024 36.5656 9.05024 36.5846 9.68319C37.6677 9.00474 38.9184 8.64329 40.1954 8.63961Z" fill="#3C3C3C"/>
<path id="Vector_2" d="M12.0193 8.63961C10.7342 8.63155 9.47221 8.98284 8.37501 9.65409C7.27781 10.3253 6.3888 11.29 5.8077 12.4398C5.22661 13.5896 4.97643 14.879 5.08523 16.1635C5.19404 17.448 5.65752 18.6766 6.42369 19.7116C7.18985 20.7466 8.22838 21.5469 9.42276 22.0229C10.6171 22.4988 11.9201 22.6315 13.1855 22.4061C14.4508 22.1807 15.6286 21.606 16.5865 20.7466C17.5444 19.8872 18.2446 18.7771 18.6086 17.5408C19.0535 17.9992 19.5382 18.4169 20.057 18.789C19.4715 20.2554 18.4989 21.5342 17.2436 22.488C15.9882 23.4419 14.4976 24.0347 12.9317 24.203C11.3658 24.3712 9.78378 24.1084 8.35552 23.4429C6.92726 22.7774 5.70669 21.7342 4.82488 20.4254C3.94306 19.1166 3.43329 17.5916 3.35031 16.0141C3.26733 14.4367 3.61427 12.8663 4.35388 11.4717C5.09348 10.0771 6.19782 8.91087 7.54833 8.09827C8.89883 7.28567 10.4445 6.85738 12.0193 6.85938C13.3534 6.86937 14.6666 7.19169 15.8546 7.80065C15.7242 8.42024 15.6491 9.05024 15.6302 9.68319C14.547 9.00474 13.2964 8.64329 12.0193 8.63961Z" fill="#3C3C3C"/>
<path id="Vector_3" d="M26.0988 20.16C28.079 20.1559 30.0136 19.5633 31.6581 18.4568C33.3027 17.3504 34.5833 15.7798 35.3383 13.9436C36.0933 12.1074 36.2888 10.0879 35.9 8.14035C35.5112 6.19277 34.5556 4.40447 33.154 3.00141C31.7523 1.59835 29.9675 0.643494 28.0251 0.257482C26.0826 -0.12853 24.0697 0.0716264 22.2406 0.832661C20.4115 1.5937 18.8484 2.88146 17.7486 4.53324C16.6489 6.18502 16.062 8.1267 16.062 10.1129C16.0674 12.7795 17.1272 15.3349 19.0089 17.2185C20.8906 19.1021 23.4404 20.16 26.0988 20.16ZM26.0988 2.09168C27.6747 2.09573 29.214 2.56789 30.5226 3.44858C31.8312 4.32927 32.8504 5.57903 33.4516 7.04015C34.0528 8.50127 34.209 10.1083 33.9006 11.6584C33.5922 13.2085 32.8329 14.6322 31.7186 15.7499C30.6043 16.8676 29.1849 17.6292 27.6396 17.9385C26.0942 18.2479 24.4921 18.0912 23.0354 17.4881C21.5787 16.8851 20.3328 15.8628 19.4547 14.5502C18.5767 13.2376 18.106 11.6936 18.102 10.1129C18.1074 7.98723 18.9516 5.95013 20.4501 4.44702C21.9487 2.94391 23.9796 2.09708 26.0988 2.09168Z" fill="#3C3C3C"/>
<path id="Vector_4" d="M40.8277 24.9891H39.7465C38.8739 24.9896 38.0044 25.0926 37.1557 25.296C37.5671 25.8006 37.9421 26.3339 38.2777 26.8921C38.7561 26.8067 39.2403 26.7588 39.7261 26.7488H40.8073C42.0606 26.7326 43.3047 26.9662 44.4673 27.436C45.6299 27.9059 46.6879 28.6027 47.5798 29.4859C48.4718 30.3692 49.18 31.4214 49.6634 32.5814C50.1467 33.7414 50.3955 34.9862 50.3954 36.2434V48.971H40.3993V49.7281C40.3927 50.104 40.2556 50.4658 40.0117 50.7512H51.2726C51.5053 50.7512 51.7284 50.6585 51.8929 50.4935C52.0574 50.3285 52.1498 50.1047 52.1498 49.8714V36.2434C52.1472 34.7576 51.8518 33.2869 51.2806 31.916C50.7094 30.5451 49.8737 29.301 48.8215 28.2551C47.7694 27.2092 46.5215 26.3823 45.1496 25.8218C43.7778 25.2613 42.309 24.9783 40.8277 24.9891Z" fill="#3C3C3C"/>
<path id="Vector_5" d="M11.3869 24.9891H12.4681C13.3407 24.9896 14.2103 25.0926 15.059 25.296C14.6476 25.8006 14.2726 26.3339 13.937 26.8921C13.4586 26.8067 12.9743 26.7588 12.4885 26.7488H11.4073C10.154 26.7326 8.90996 26.9662 7.74737 27.436C6.58477 27.9059 5.52679 28.6027 4.63481 29.4859C3.74284 30.3692 3.03464 31.4214 2.5513 32.5814C2.06797 33.7414 1.81914 34.9862 1.81924 36.2434V48.971H11.8153V49.7281C11.822 50.104 11.9591 50.4658 12.2029 50.7512H0.942035C0.709385 50.7512 0.486263 50.6585 0.321755 50.4935C0.157246 50.3285 0.0648263 50.1047 0.0648263 49.8714V36.2434C0.0674756 34.7576 0.362888 33.2869 0.934074 31.916C1.50526 30.5451 2.34095 29.301 3.39312 28.2551C4.44529 27.2092 5.69317 26.3823 7.06503 25.8218C8.43689 25.2613 9.90567 24.9783 11.3869 24.9891Z" fill="#3C3C3C"/>
<path id="Vector_6" d="M26.7312 20.9785H25.4664C22.027 20.9839 18.73 22.3568 16.298 24.7962C13.866 27.2357 12.4973 30.5427 12.4919 33.9926V49.7077C12.4919 49.9791 12.5993 50.2393 12.7906 50.4312C12.9819 50.6231 13.2414 50.7309 13.5119 50.7309H38.6857C38.9562 50.7309 39.2157 50.6231 39.407 50.4312C39.5983 50.2393 39.7057 49.9791 39.7057 49.7077V33.9926C39.7003 30.5427 38.3316 27.2357 35.8996 24.7962C33.4676 22.3568 30.1706 20.9839 26.7312 20.9785ZM37.6657 48.6846H14.5319V33.9926C14.5373 31.0854 15.691 28.2988 17.7405 26.2431C19.7899 24.1874 22.568 23.0302 25.4664 23.0248H26.7312C29.6296 23.0302 32.4077 24.1874 34.4571 26.2431C36.5066 28.2988 37.6603 31.0854 37.6657 33.9926V48.6846Z" fill="#3C3C3C"/>
</g>
</g>
<defs>
<clipPath id="clip0_9_17">
<rect width="52" height="50.7" fill="white" transform="translate(0.125671 0.0805664)"/>
</clipPath>
</defs>
</svg>
