<svg width="71" height="53" viewBox="0 0 71 53" fill="none" xmlns="http://www.w3.org/2000/svg">
<g clip-path="url(#clip0_9_50)">
<path d="M8.24959 52.6485C8.0701 52.6485 7.8906 52.5588 7.78963 52.4017C7.61013 52.1437 7.67744 51.7959 7.93547 51.6164L20.7135 42.8098C20.893 42.6864 21.1061 42.6752 21.2968 42.7762C21.4875 42.8771 21.5997 43.0678 21.5997 43.2698C21.5997 43.4605 21.51 43.7185 21.3529 43.8195L8.56371 52.5476C8.47397 52.6149 8.36178 52.6485 8.24959 52.6485Z" fill="#3C3C3C"/>
<path d="M62.3681 52.6373C62.256 52.6373 62.1438 52.6036 62.054 52.5363L49.3209 43.8531C49.1638 43.7522 49.0741 43.5727 49.0741 43.3932V43.2473C49.0741 43.0342 49.1863 42.8434 49.377 42.7537C49.5565 42.6527 49.7809 42.664 49.9604 42.7874L62.6935 51.5603C62.8393 51.6613 62.9403 51.8408 62.9403 52.0203V52.0764C62.9403 52.2895 62.8281 52.4802 62.6374 52.57C62.5476 52.6148 62.4579 52.6373 62.3681 52.6373Z" fill="#3C3C3C"/>
<path d="M62.3682 52.581C62.256 52.581 62.1438 52.5474 62.0541 52.4801L37.8219 35.7868C37.6648 35.6858 37.5751 35.5063 37.5751 35.3268C37.5751 35.1473 37.6648 34.9678 37.8219 34.8669L62.0541 18.1736C62.2223 18.0614 62.4467 18.039 62.6374 18.1399C62.8281 18.2409 62.9403 18.4316 62.9403 18.6335V52.0201C62.9403 52.2332 62.8281 52.424 62.6374 52.5137C62.5477 52.5586 62.4579 52.581 62.3682 52.581ZM39.1232 35.3268L61.8073 50.9543V19.6993L39.1232 35.3268Z" fill="#3C3C3C"/>
<path d="M62.7386 18.0728C62.7162 18.0616 62.7049 18.0616 62.6825 18.0616L50.1962 9.54669V6.55133C50.1962 6.23721 49.9494 5.9904 49.6353 5.9904H44.9795L38.7083 1.71611C36.6441 0.302568 33.9741 0.313786 31.9099 1.71611L25.6387 5.9904H21.0278C20.7137 5.9904 20.4669 6.23721 20.4669 6.55133V9.52426L7.87964 18.1065C7.6777 18.2411 7.61039 18.4991 7.68892 18.7347C7.68892 18.7347 7.68892 18.7347 7.68892 18.7459V52.0988C7.68892 52.1325 7.71136 52.1662 7.71136 52.1886C7.71136 52.211 7.70014 52.2335 7.71136 52.2559C7.72257 52.2783 7.73379 52.2896 7.74501 52.3008C7.76745 52.3681 7.81232 52.413 7.86842 52.4691C7.90207 52.5027 7.92451 52.5252 7.95817 52.5476C7.96938 52.5588 7.9806 52.57 7.99182 52.5812C8.07035 52.6261 8.1601 52.6486 8.24985 52.6486H62.3684C62.3908 52.6486 62.4133 52.6373 62.4245 52.6373C62.4357 52.6373 62.4469 52.6486 62.4693 52.6486C62.5591 52.6486 62.6488 52.6261 62.7386 52.5812C62.9181 52.4803 63.0303 52.2896 63.0303 52.0876V18.5664C63.0303 18.3645 62.9181 18.1738 62.7386 18.0728ZM50.1513 43.0679C50.1177 42.9557 50.0504 42.8547 49.9494 42.7874L39.1234 35.327L49.9494 27.8667L61.8075 19.6995V51.0106L50.1513 43.0679ZM61.4485 18.5777L50.1962 26.3297V10.9041L61.4485 18.5777ZM32.5381 2.63604C34.2209 1.49174 36.3973 1.49174 38.0801 2.63604L42.9939 5.9904H27.6244L32.5381 2.63604ZM21.5888 7.11226H25.807H44.8113H49.0743V9.83838V27.115L37.9679 34.7661L36.8909 34.0369C36.6553 33.8686 36.3973 33.7452 36.1281 33.6667C35.8588 33.5882 35.5784 33.5433 35.3091 33.5433C34.7594 33.5433 34.1985 33.7116 33.7385 34.0369L32.6952 34.7437L21.5888 27.0926V9.81594V7.11226ZM20.7137 27.833L31.5845 35.327L20.7137 42.8211L8.822 51.0219V19.6322L20.7137 27.833ZM20.4669 26.3073L9.21465 18.544L20.4669 10.8705V26.3073ZM10.0673 51.5267L21.342 43.8307L34.378 34.9456C34.9389 34.553 35.6905 34.553 36.2627 34.9456L49.3212 43.8532L60.5622 51.5267H10.0673Z" fill="#3C3C3C"/>
<path d="M41.4667 21.1183L35.3311 26.6539L29.1955 21.1183C28.353 20.3582 27.8748 19.2943 27.8748 18.18C27.8748 15.96 29.7364 14.1604 32.0329 14.1604H32.1174C33.2205 14.1604 34.2778 14.5837 35.0577 15.3377L35.3311 15.602L35.6045 15.3377C36.3844 14.5837 37.4418 14.1604 38.5448 14.1604H38.6293C40.9259 14.1604 42.7875 15.96 42.7875 18.18C42.7875 19.2943 42.3093 20.3582 41.4667 21.1183Z" stroke="#3C3C3C" stroke-miterlimit="10" stroke-linejoin="round"/>
</g>
<defs>
<clipPath id="clip0_9_50">
<rect width="70" height="51.6056" fill="white" transform="translate(0.343628 0.425781)"/>
</clipPath>
</defs>
</svg>
