<svg width="71" height="41" viewBox="0 0 71 41" fill="none" xmlns="http://www.w3.org/2000/svg">
<g id="Layer 3">
<path id="Vector" d="M66.5717 17.2766C66.5702 16.0148 66.0257 14.8051 65.0576 13.9129C64.0895 13.0206 62.7769 12.5188 61.4078 12.5174H40.818C41.3912 12.0234 41.8004 11.3896 41.9981 10.6896C42.1957 9.98965 42.1735 9.25237 41.9343 8.56355C41.695 7.87473 41.2485 7.26268 40.6465 6.79861C40.0446 6.33455 39.3121 6.03754 38.5342 5.94216C38.487 4.70925 38.9506 3.506 39.8309 2.57662C40.2679 2.13287 40.8032 1.78078 41.4006 1.54416C41.998 1.30754 42.6436 1.1919 43.2937 1.20506V0.147469C42.4841 0.137252 41.6814 0.285001 40.9382 0.581014C40.195 0.877027 39.5281 1.31461 38.9815 1.865C37.9114 2.98985 37.3435 4.4466 37.3922 5.94188C36.6141 6.03697 35.8813 6.33377 35.2791 6.79774C34.6769 7.2617 34.23 7.87376 33.9905 8.56267C33.751 9.25157 33.7287 9.989 33.9263 10.6891C34.1238 11.3892 34.533 12.0233 35.1063 12.5174H10.304C8.93494 12.5188 7.62234 13.0206 6.65424 13.9128C5.68614 14.8051 5.1416 16.0148 5.14011 17.2766V35.4509H0.64978V38.003C0.650485 38.7041 0.952963 39.3762 1.49082 39.8719C2.02869 40.3676 2.75798 40.6464 3.51863 40.647H67.7809C68.5416 40.6464 69.2709 40.3676 69.8087 39.8719C70.3466 39.3762 70.6491 38.7041 70.6498 38.003V35.4509H66.5717V17.2766ZM34.9404 9.73193C34.9405 9.18111 35.1178 8.6427 35.45 8.18477C35.7821 7.72684 36.2541 7.36996 36.8063 7.15927C37.3585 6.94857 37.9661 6.89352 38.5523 7.00108C39.1384 7.10864 39.6768 7.37397 40.0994 7.76352C40.5219 8.15308 40.8096 8.64936 40.9261 9.18961C41.0426 9.72986 40.9826 10.2898 40.7538 10.7987C40.525 11.3075 40.1376 11.7424 39.6406 12.0483C39.1436 12.3543 38.5593 12.5175 37.9617 12.5174C37.1605 12.5165 36.3924 12.2227 35.826 11.7005C35.2596 11.1783 34.9411 10.4703 34.9404 9.73193ZM10.304 13.575H61.4077C62.4725 13.5762 63.4934 13.9666 64.2463 14.6605C64.9992 15.3544 65.4228 16.2952 65.4241 17.2766V20.0694C62.7441 18.8708 59.7924 18.2787 56.8142 18.3425C53.8361 18.4062 50.9174 19.1239 48.3006 20.4359C40.6947 23.9878 35.5029 24.8037 24.9128 20.2862C24.4936 20.0906 24.0582 19.9262 23.6106 19.7946L23.3293 20.8201C23.6843 20.9325 24.0316 21.0646 24.3693 21.2157C28.3202 23.151 32.6849 24.2614 37.1537 24.4679C41.2518 24.3225 45.2507 23.2644 48.8084 21.384C51.3502 20.0987 54.1975 19.4129 57.0967 19.3878C59.9958 19.3626 62.8566 19.999 65.4242 21.24V29.2976C62.7256 28.0518 59.7399 27.4262 56.7221 27.4741C53.7043 27.5221 50.7438 28.2423 48.0934 29.5731C40.4875 33.1239 35.2979 33.9409 24.7078 29.4234C20.06 26.7569 11.9198 26.6974 6.28774 29.1293V21.2454C9.30527 19.8793 12.636 19.2047 15.997 19.2791L16.0127 18.2215C12.6615 18.1735 9.34034 18.81 6.28774 20.0853V17.2766C6.28903 16.2952 6.71259 15.3544 7.46551 14.6605C8.21843 13.9666 9.23924 13.5762 10.304 13.575ZM6.28765 30.2933C11.5273 27.8163 19.6909 27.7897 24.1631 30.353C28.114 32.2882 32.4787 33.3986 36.9474 33.6053C41.0453 33.4603 45.0439 32.4021 48.601 30.5213C51.1767 29.2167 54.0662 28.5283 57.0052 28.5191C59.9442 28.5099 62.8388 29.1801 65.4241 30.4685V35.451H6.28765V30.2933ZM69.5022 36.5085V38.003C69.5017 38.4236 69.3202 38.8269 68.9975 39.1243C68.6748 39.4217 68.2373 39.589 67.7809 39.5894H3.51863C3.06227 39.589 2.62473 39.4217 2.30203 39.1243C1.97933 38.8269 1.79782 38.4236 1.79732 38.003V36.5086L69.5022 36.5085ZM21.0713 20.061C20.2315 19.7647 19.3589 19.5545 18.4692 19.4341L18.6148 18.3848C19.6149 18.5191 20.5954 18.7571 21.5375 19.0943L21.0713 20.061Z" fill="black"/>
</g>
</svg>
