<svg width="70" height="55" viewBox="0 0 70 55" fill="none" xmlns="http://www.w3.org/2000/svg">
<g id="Frame 6">
<g id="Group">
<path id="Vector" d="M38.4782 0.742676C35.4072 0.742676 32.9131 3.044 32.9131 5.87771V13.5803C32.9131 14.0784 32.4932 15.1384 31.7175 16.3684C30.9417 17.5984 29.8446 19.0284 28.5653 20.4604C26.3138 22.9808 23.5072 25.5221 21.0872 27.1199V23.8503C21.0872 23.6801 21.0139 23.5168 20.8834 23.3965C20.753 23.2761 20.5761 23.2085 20.3916 23.2084H9.26132C9.23959 23.2075 9.21783 23.2075 9.1961 23.2084C9.02314 23.2235 8.86253 23.2977 8.74587 23.4165C8.62921 23.5353 8.56493 23.69 8.56568 23.8503V52.093C8.5657 52.2632 8.63899 52.4265 8.76945 52.5469C8.8999 52.6672 9.07683 52.7349 9.26132 52.7349H20.3916C20.5761 52.7349 20.753 52.6672 20.8834 52.5469C21.0139 52.4265 21.0872 52.2632 21.0872 52.093V50.2275C22.4329 50.4199 23.5873 51.2573 24.7611 52.2334C26.0955 53.3432 27.4067 54.6605 29.1958 54.6605H50.9997C54.0708 54.6605 56.5649 52.3592 56.5649 49.5255C56.5649 48.3426 56.0325 47.3075 55.304 46.4364C57.2555 45.6403 58.6518 43.9169 58.6518 41.8229C58.6518 40.5367 58.0419 39.4332 57.1953 38.5333C58.8799 37.6528 60.0431 36.0342 60.0431 34.1204C60.0431 32.8341 59.4332 31.7306 58.5866 30.8308C60.2712 29.9502 61.4343 28.3317 61.4343 26.4178C61.4343 23.5841 58.9403 21.2828 55.8692 21.2828H42.6303C43.5912 19.838 44.0433 17.9721 44.0433 16.1478V5.87771C44.0433 3.044 41.5493 0.742676 38.4782 0.742676ZM38.4782 2.02643C40.8026 2.02643 42.6521 3.733 42.6521 5.87771V16.1478C42.6521 18.2178 41.9405 20.3747 40.7608 21.4633C40.6602 21.5531 40.5912 21.6688 40.563 21.7954C40.5348 21.9219 40.5486 22.0533 40.6026 22.1725C40.6566 22.2916 40.7483 22.393 40.8657 22.4633C40.9831 22.5336 41.1208 22.5696 41.2608 22.5666H55.8692C58.1936 22.5666 60.0431 24.2731 60.0431 26.4178C60.0431 28.0926 58.9041 29.4898 57.304 30.0284C57.1929 30.0693 57.095 30.136 57.02 30.2219C56.9449 30.3079 56.8951 30.4102 56.8755 30.5191C56.8558 30.628 56.8669 30.7398 56.9077 30.8435C56.9485 30.9473 57.0176 31.0396 57.1083 31.1116C58.0543 31.8175 58.6518 32.9006 58.6518 34.1204C58.6518 35.7952 57.5128 37.1924 55.9127 37.731C55.8016 37.7719 55.7038 37.8385 55.6287 37.9245C55.5536 38.0104 55.5039 38.1128 55.4842 38.2217C55.4645 38.3306 55.4756 38.4423 55.5164 38.5461C55.5572 38.6499 55.6263 38.7422 55.7171 38.8141C56.663 39.52 57.2605 40.6031 57.2605 41.8229C57.2605 43.6442 55.9094 45.1394 54.0866 45.5539C53.969 45.5855 53.8625 45.6453 53.778 45.7271C53.6934 45.809 53.6338 45.9099 53.6051 46.0199C53.5764 46.1298 53.5797 46.2448 53.6146 46.3531C53.6496 46.4615 53.7149 46.5594 53.804 46.637C54.6533 47.3399 55.1736 48.3753 55.1736 49.5255C55.1736 51.6702 53.3241 53.3768 50.9997 53.3768H29.1958C28.225 53.3768 27.0627 52.4274 25.6958 51.2906C24.4489 50.2537 22.9956 49.1173 21.0872 48.9237V28.6644C23.8834 27.0061 27.0646 24.1552 29.6305 21.2828C30.947 19.8091 32.1051 18.3259 32.9348 17.0103C33.7645 15.6947 34.3044 14.582 34.3044 13.5803V5.87771C34.3044 3.733 36.1539 2.02643 38.4782 2.02643ZM9.95696 24.4922H19.6959V51.4511H9.95696V24.4922Z" fill="black"/>
</g>
</g>
</svg>
